<svg xmlns="http://www.w3.org/2000/svg" viewBox="0 0 24 24">
  <g transform="translate(-285.24 -142.234)">
    <path d="M305.91 156.648a8.652 8.652 0 0 1-8.654 8.653 8.652 8.652 0 0 1-8.653-8.653 8.653 8.653 0 0 1 8.653-8.653 8.653 8.653 0 0 1 8.653 8.653z" fill="#fff" stroke="#fff" strokeWidth=".895"/>
    <path d="M304.982 156.648a7.725 7.725 0 0 1-7.726 7.726 7.725 7.725 0 0 1-7.726-7.726 7.725 7.725 0 0 1 7.726-7.726 7.725 7.725 0 0 1 7.726 7.726z" fill="none" stroke="#6d6d6d" strokeWidth=".799"/>
    <path d="M297.256 156.648v-8.525" fill="none" stroke="#000" strokeWidth=".067"/>
    <path d="M297.258 143.48l8.793 22.432-8.811-8.812-8.812 8.812z" fill="#fff" stroke="#fff" strokeWidth=".912"/>
    <path d="M297.256 144.805l7.726 19.568-7.726-7.726-7.726 7.726z" fill="#d6d6d6" stroke="#000" strokeWidth=".266"/>
    <path d="M297.256 144.805l7.726 19.568-7.726-7.726z" fill="#8c8c8c"/>
  </g>
</svg>
